# xmcd CD database file
#
# Track frame offsets:
#	150
#	23793
#	39404
#	60050
#	82435
#	96962
#	115112
#	136725
#	156250
#	170905
#
# Disc length: 2455 seconds
#
# Revision: 0
# Processed by: cddbd v1.5.2PL0 Copyright (c) Steve Scherf et al.
# Submitted via: CDex 1.70beta2
#
DISCID=7d09950a
DTITLE=Luciana Souza - The Book of Longing
DYEAR=2018
DGENRE=Jazz
TTITLE0=These Things
TTITLE1=Daybreak
TTITLE2=Alms
TTITLE3=Night Song
TTITLE4=Paris
TTITLE5=The Book
TTITLE6=Tonight
TTITLE7=We Grow Accustomed to the Dark
TTITLE8=A Life
TTITLE9=Remember
EXTD=YEAR: 2018
EXTT0=
EXTT1=
EXTT2=
EXTT3=
EXTT4=
EXTT5=
EXTT6=
EXTT7=
EXTT8=
EXTT9=
PLAYORDER=
